<svg width="44" height="44" viewBox="0 0 44 44" fill="none" xmlns="http://www.w3.org/2000/svg">
<path d="M0 9C0 4.02944 4.02944 0 9 0H35C39.9706 0 44 4.02944 44 9V35C44 39.9706 39.9706 44 35 44H9C4.02944 44 0 39.9706 0 35V9Z" fill="#131312"/>
<path d="M20.5 34C20.5 34.8284 21.1716 35.5 22 35.5C22.8284 35.5 23.5 34.8284 23.5 34L20.5 34ZM23.0607 8.93934C22.4749 8.35355 21.5251 8.35355 20.9393 8.93934L11.3934 18.4853C10.8076 19.0711 10.8076 20.0208 11.3934 20.6066C11.9792 21.1924 12.9289 21.1924 13.5147 20.6066L22 12.1213L30.4853 20.6066C31.0711 21.1924 32.0208 21.1924 32.6066 20.6066C33.1924 20.0208 33.1924 19.0711 32.6066 18.4853L23.0607 8.93934ZM23.5 34L23.5 10L20.5 10L20.5 34L23.5 34Z" fill="#F8F0E6"/>
</svg>
