<svg width="354" height="144" viewBox="0 0 354 144" fill="none" xmlns="http://www.w3.org/2000/svg">
<path d="M18.7889 31.4769C30.4125 31.4769 38.6484 29.4325 38.6484 19.678C38.6484 9.92348 30.4125 7.87912 18.7889 7.87912H4.01104V8.8721C6.58109 8.8721 8.21658 11.9678 8.21658 15.5893V40.9978C8.21658 44.9697 6.81474 48.007 4.3615 48.007V49H23.5785V48.007C21.0669 48.007 16.6861 47.5982 16.6861 40.9978V31.4769H18.7889ZM16.6861 8.8721H18.7889C24.5131 8.8721 29.0691 9.28097 29.0691 19.678C29.0691 30.0166 24.5131 30.4839 18.7889 30.4839H16.6861V8.8721ZM63.1437 7.35343C50.2935 7.35343 42.9922 17.1664 42.9922 28.7316C42.9922 40.3553 50.2935 49.5257 63.1437 49.5257C75.994 49.5257 83.2953 40.3553 83.2953 28.7316C83.2953 17.1664 75.994 7.35343 63.1437 7.35343ZM63.1437 48.5327C56.1929 48.5327 52.9804 44.7945 52.9804 28.7316C52.9804 12.7272 56.1929 8.3464 63.1437 8.3464C70.0362 8.3464 73.1903 12.7272 73.1903 28.7316C73.1903 44.7945 70.0362 48.5327 63.1437 48.5327ZM121.225 42.2828C118.363 31.769 113.69 29.1989 109.893 29.6078C116.844 28.79 121.283 26.1616 121.283 19.0355C121.283 9.28097 113.106 7.87912 101.482 7.87912H86.9966V8.8721C89.5667 8.8721 91.2022 10.4492 91.2022 14.0706V41.9323C91.2022 45.9043 89.5083 48.007 86.9966 48.007V49H103.994V48.007C101.541 48.007 99.6717 45.9043 99.6717 41.9323V30.2503H102.417C102.417 30.2503 107.791 30.2503 109.718 36.2665C113.807 48.9416 112.288 48.9416 122.685 49H128.059V48.007C126.54 47.8902 122.393 46.722 121.225 42.2828ZM101.482 29.2573H99.6717V8.8721H101.482C107.148 8.8721 111.763 8.8721 111.763 19.0355C111.763 29.1989 107.148 29.2573 101.482 29.2573ZM128.524 7.87912V19.6196H129.517C129.984 9.16415 142.367 8.8721 142.367 8.8721H143.477V41.9323C143.477 45.9043 140.965 48.007 138.512 48.007V49H156.911V48.007C154.458 48.007 151.947 45.9043 151.947 41.9323V8.8721H153.056C153.056 8.8721 165.498 9.16415 165.965 19.6196H166.958V7.87912H128.524ZM203.479 42.2828C200.617 31.769 195.944 29.1989 192.147 29.6078C199.098 28.79 203.537 26.1616 203.537 19.0355C203.537 9.28097 195.36 7.87912 183.736 7.87912H169.25V8.8721C171.82 8.8721 173.456 10.4492 173.456 14.0706V41.9323C173.456 45.9043 171.762 48.007 169.25 48.007V49H186.248V48.007C183.794 48.007 181.925 45.9043 181.925 41.9323V30.2503H184.671C184.671 30.2503 190.044 30.2503 191.972 36.2665C196.061 48.9416 194.542 48.9416 204.939 49H210.313V48.007C208.794 47.8902 204.647 46.722 203.479 42.2828ZM183.736 29.2573H181.925V8.8721H183.736C189.402 8.8721 194.016 8.8721 194.016 19.0355C194.016 29.1989 189.402 29.2573 183.736 29.2573ZM246.325 43.7431C246.325 43.7431 245.799 42.2244 231.489 7.87912H230.496L220.391 34.5142C214.667 48.3575 213.206 47.8902 211.688 48.007V49H226.057V48.007C216.828 48.4743 220.449 37.4932 220.449 37.4932H234.292L236.045 41.7571C236.045 41.7571 239.082 48.007 234.526 48.007V49H251.231V48.007C249.713 47.8902 248.311 48.4159 246.325 43.7431ZM220.624 36.5002L226.991 19.4444L233.942 36.5002H220.624ZM254.328 7.87912V8.8721C256.898 8.8721 259.293 10.4492 259.293 14.0706V41.9323C259.293 45.9043 256.839 48.007 254.328 48.007V49H272.727V48.007C270.274 48.007 267.762 45.9043 267.762 41.9323V14.0706C267.762 10.4492 270.215 8.8721 272.727 8.8721V7.87912H254.328ZM275.919 7.87912V19.6196H276.912C277.379 9.16415 289.762 8.8721 289.762 8.8721H290.872V41.9323C290.872 45.9043 288.36 48.007 285.907 48.007V49H304.306V48.007C301.853 48.007 299.341 45.9043 299.341 41.9323V8.8721H300.451C300.451 8.8721 312.893 9.16415 313.36 19.6196H314.353V7.87912H275.919ZM339.892 26.9793L330.897 21.0214C323.304 16.0566 325.582 8.3464 331.89 8.3464C341.236 8.3464 344.799 16.8743 345.909 19.9701H346.902V10.1571C346.902 10.1571 341.878 7.35343 331.89 7.35343C322.661 7.35343 319.799 11.7926 319.799 11.7926C314.951 18.1593 318.047 24.0004 326.341 29.1989L335.336 34.8647C342.462 40.0632 340.535 48.5327 334.285 48.5327C323.888 48.5327 320.559 38.2525 319.274 34.6895H318.281V45.9043C318.281 45.9043 322.953 49.5257 334.285 49.5257C343.689 49.5257 346.434 44.736 346.434 44.736C350.815 38.3693 347.603 32.061 339.892 26.9793Z" fill="#131312"/>
<path d="M5.19852 105.599L5.19852 116.231H5.88316C5.88316 114.459 8.25928 113.211 10.7562 113.211H28.0334C30.7719 113.211 32.8661 114.499 32.8661 116.231H33.5508V105.599C33.5508 97.5846 31.2552 88.7246 19.4955 88.7246C7.69545 88.7246 5.19852 97.5846 5.19852 105.599ZM32.8661 105.599V107.371H5.88316V105.599C5.88316 101.652 6.93027 95.7724 19.4955 95.7724C32.0204 95.7724 32.8661 101.652 32.8661 105.599ZM5.19852 57.1674L5.19852 69.3299H5.88316C5.84289 63.7722 11.9241 63.8528 11.9241 63.8528H23.8852C28.9596 63.8528 31.4969 67.4371 31.4969 70.4978C31.4969 74.3238 28.6777 77.2637 23.9255 77.2637H9.4272C6.52753 77.2637 5.88316 75.2501 5.88316 73.5183H5.19852L5.19852 86.3252H5.88316C5.88316 84.5532 6.97054 83.1033 9.4272 83.1033H23.6436C30.2081 83.1033 33.9132 78.5927 33.9132 73.1156C33.9132 69.5716 32.5037 63.1681 23.8852 63.1681H11.9241C11.9241 63.1681 5.84289 63.2487 5.88316 57.1674H5.19852Z" fill="#131312"/>
<path d="M109.576 106.744V69.7242C109.576 64.9999 112.21 62.9088 115.54 62.9088V61.5921H98.4239L82.9343 100.858L64.2692 61.5921H44.7523V62.9088C46.6885 63.0637 50.5609 63.0637 53.5039 68.2527V96.5213C53.5039 96.5213 53.5039 114.799 41.8867 114.799V116.116H65.3535V114.799C54.6656 114.799 54.8205 96.5213 54.8205 96.5213V70.3438L76.5061 116.813H77.8227L98.4239 65.2322V106.744C98.4239 112.011 96.1005 114.799 92.8476 114.799V116.116H116.237V114.799C112.907 114.799 109.576 112.011 109.576 106.744ZM147.548 60.8951C130.509 60.8951 120.828 73.9064 120.828 89.2412C120.828 104.653 130.509 116.813 147.548 116.813C164.586 116.813 174.268 104.653 174.268 89.2412C174.268 73.9064 164.586 60.8951 147.548 60.8951ZM147.548 115.496C138.332 115.496 134.072 110.539 134.072 89.2412C134.072 68.0204 138.332 62.2117 147.548 62.2117C156.687 62.2117 160.869 68.0204 160.869 89.2412C160.869 110.539 156.687 115.496 147.548 115.496ZM218.054 61.5921V62.9088C228.742 62.8313 228.665 81.264 228.665 81.264V100.084L197.453 61.5921H178.478V62.9088C180.492 63.0637 182.738 62.2117 187.695 68.4076L190.715 72.2026V96.3664C190.715 96.3664 190.792 114.799 179.098 114.799V116.116H202.642V114.799C191.954 114.799 192.032 96.3664 192.032 96.3664V73.5966L225.877 116.116H229.981V81.264C229.981 81.264 229.826 62.8313 241.521 62.9088V61.5921H218.054ZM266.138 61.5921H245.691V62.9088C249.099 62.9088 251.5 67.4782 251.5 72.28V105.505C251.5 110.772 249.021 114.799 245.691 114.799V116.116H266.138C281.55 116.116 298.588 111.701 298.588 89.0863C298.588 66.3939 281.55 61.5921 266.138 61.5921ZM266.138 114.799H262.73V62.9088H266.138C273.727 62.9088 285.035 64.9224 285.035 89.0863C285.035 113.173 273.727 114.799 266.138 114.799ZM346.651 99.232C343.398 114.799 322.874 114.799 322.874 114.799H320.086V89.2412H322.874C322.874 89.2412 334.647 89.2412 335.421 97.2958H336.738V79.8699H335.421C334.647 87.9246 322.874 87.9246 322.874 87.9246H320.086V62.9088H322.874C322.874 62.9088 343.863 62.9088 345.644 76.3073H346.961V61.5921H304.364V62.9088C307.772 62.9088 308.856 67.4782 308.856 72.28V105.505C308.856 110.772 307.617 114.799 304.364 114.799V116.116H347.968V99.232H346.651Z" fill="#131312"/>
</svg>
