<svg width="77" height="29" viewBox="0 0 77 29" fill="none" xmlns="http://www.w3.org/2000/svg">
<g clip-path="url(#clip0)">
<path d="M70.1273 8.71464C69.6851 7.4775 68.9481 6.36771 67.9347 5.34889C67.124 4.58477 66.1474 4.00259 64.9866 3.58415C63.8258 3.1657 62.5544 2.96558 61.191 2.96558C57.7454 2.96558 54.9447 4.2573 52.8074 6.82254C51.1122 4.2573 48.5879 2.96558 45.2161 2.96558L45.2345 2.98377C45.0871 2.98377 44.9397 2.96558 44.7739 2.96558C41.3283 2.96558 38.5276 4.2573 36.3903 6.82254C34.6951 4.2573 32.1709 2.96558 28.799 2.96558L28.8174 2.98377C28.6884 2.98377 28.5595 2.96558 28.4305 2.96558H28.3752C24.9481 2.96558 22.1658 4.2391 20.0285 6.76796C19.6968 6.27674 19.3099 5.80372 18.8492 5.36708C18.6466 5.18515 18.4439 5.00322 18.2228 4.83948C16.6935 3.60234 14.7588 2.96558 12.4003 2.96558H12.3819C12.3451 2.96558 12.2898 2.96558 12.2529 2.96558C12.1977 2.96558 12.1424 2.96558 12.1055 2.96558C9.43384 2.96558 7.14908 3.74789 5.26968 5.29431V3.27486H0V20.5038H0.0368509H5.38023H5.41709V13.3357C5.41709 12.3897 5.56449 11.571 5.8593 10.8614C6.1541 10.1519 6.55946 9.56972 7.05695 9.09669C7.68342 8.5509 8.40201 8.16884 9.17588 7.95052C9.23116 7.93233 9.28643 7.91413 9.32328 7.91413C9.34171 7.91413 9.36013 7.91413 9.39699 7.89594C9.89447 7.78678 10.392 7.71401 10.9263 7.71401C12.4372 7.71401 13.6901 8.18703 14.7404 9.11489C15.7722 10.0609 16.2881 11.5346 16.2881 13.5904V20.5038H16.3065H16.325H21.6683H21.6868H21.7052V13.081C21.7236 12.2441 21.871 11.4982 22.1474 10.8432C22.4422 10.1337 22.8476 9.53333 23.3635 9.0785C23.8794 8.60548 24.469 8.25981 25.1323 8.04149C25.7956 7.82317 26.4958 7.71401 27.2328 7.69581C28.7437 7.69581 30.0151 8.16884 31.0469 9.09669C32.0787 10.0427 32.5946 11.5346 32.5946 13.5722V20.4857H32.6131H32.6683H37.9564H37.9749H38.0301V13.3357C38.0301 12.3897 38.1776 11.571 38.4724 10.8614C38.7672 10.1519 39.1725 9.55152 39.6884 9.09669C40.2044 8.62367 40.794 8.278 41.4573 8.05968C42.1206 7.84136 42.8208 7.71401 43.5578 7.71401C45.0687 7.71401 46.34 8.18703 47.3903 9.11489C48.4221 10.0609 48.938 11.5528 48.938 13.5904V20.5038H49.0854H54.3551H54.4841V13.3357C54.4841 12.3897 54.6315 11.571 54.9263 10.8614C55.2211 10.1519 55.6265 9.55152 56.1424 9.09669C56.6583 8.62367 57.2479 8.278 57.9112 8.05968C58.5745 7.84136 59.2747 7.71401 60.0301 7.71401C61.541 7.71401 62.8124 8.18703 63.8626 9.11489C64.9129 10.0427 65.4104 11.5528 65.4104 13.5904V20.5038H70.7906V12.8081C70.7906 11.3163 70.5695 9.95178 70.1273 8.71464Z" fill="black"/>
<path d="M77 3.02008C77 4.67566 75.6365 6.04015 73.9414 6.04015C72.2647 6.04015 70.8828 4.69385 70.8828 3.02008C70.8828 1.3463 72.2462 0 73.9414 0C75.6365 0 77 1.3463 77 3.02008Z" fill="black"/>
<path d="M36.5745 27.5445C36.5745 27.781 36.5377 27.9993 36.464 28.1812C36.3903 28.3632 36.2797 28.5087 36.1323 28.6361C35.9849 28.7634 35.8191 28.8544 35.6348 28.909C35.4506 28.9635 35.2295 28.9999 34.9899 28.9999H32.9263V23.6511H34.9162C35.1373 23.6511 35.34 23.6875 35.5427 23.7421C35.7454 23.8149 35.8928 23.9058 36.0402 24.015C36.1876 24.1423 36.2981 24.2879 36.3718 24.4516C36.4455 24.6154 36.4824 24.8155 36.4824 25.0338C36.4824 25.3249 36.4087 25.5614 36.2613 25.7797C36.1139 25.998 35.9112 26.1436 35.6348 26.2346C35.9296 26.3437 36.1507 26.4893 36.3166 26.7258C36.5008 26.9623 36.5745 27.2352 36.5745 27.5445ZM36.077 25.052C36.077 24.8701 36.0402 24.7063 35.9849 24.579C35.9296 24.4516 35.8375 24.3425 35.7269 24.2515C35.6164 24.1787 35.4874 24.106 35.34 24.0696C35.1926 24.0332 35.0452 24.015 34.8794 24.015H33.3316V26.089H34.8794C35.0452 26.089 35.1926 26.0708 35.34 26.0344C35.4874 25.998 35.6164 25.9253 35.7269 25.8525C35.8375 25.7615 35.9296 25.6706 35.9849 25.525C36.0402 25.3977 36.077 25.2339 36.077 25.052ZM36.1692 27.5445C36.1692 27.1988 36.0586 26.9259 35.8375 26.744C35.6164 26.5438 35.3216 26.4529 34.9531 26.4529H33.3501V28.6543H34.9531C35.3216 28.6543 35.6164 28.5633 35.8375 28.3632C36.0586 28.163 36.1692 27.8901 36.1692 27.5445Z" fill="black"/>
<path d="M42.3048 26.3257C42.3048 26.6167 42.3048 26.8896 42.3048 27.108C42.3048 27.3263 42.2864 27.5082 42.2495 27.6901C42.2127 27.8721 42.1758 27.9994 42.1021 28.1268C42.0284 28.2541 41.9363 28.3815 41.8073 28.5088C41.6231 28.6908 41.4204 28.8181 41.1809 28.9091C40.9413 29.0001 40.7018 29.0546 40.4439 29.0546C40.1859 29.0546 39.9279 29.0001 39.7068 28.9091C39.4673 28.8181 39.2646 28.6726 39.0804 28.5088C38.9514 28.3815 38.8593 28.2541 38.7856 28.1268C38.7119 27.9994 38.675 27.8539 38.6382 27.6901C38.6013 27.5264 38.5829 27.3263 38.5829 27.108C38.5829 26.8896 38.5829 26.6349 38.5829 26.3257C38.5829 26.0164 38.5829 25.7617 38.5829 25.5433C38.5829 25.325 38.6013 25.1431 38.6382 24.9612C38.675 24.7792 38.7303 24.6519 38.7856 24.5245C38.8593 24.3972 38.9514 24.2698 39.0804 24.1425C39.2646 23.9605 39.4673 23.8332 39.7068 23.7422C39.9464 23.6513 40.1859 23.5967 40.4439 23.5967C40.7018 23.5967 40.9413 23.6513 41.1809 23.7422C41.4204 23.8332 41.6231 23.9787 41.8073 24.1425C41.9363 24.2698 42.0284 24.3972 42.1021 24.5245C42.1758 24.6519 42.2127 24.7974 42.2495 24.9612C42.2864 25.1249 42.3048 25.325 42.3048 25.5433C42.3048 25.7617 42.3048 26.0346 42.3048 26.3257ZM41.8995 26.3257C41.8995 26.0346 41.8995 25.7981 41.881 25.5979C41.881 25.3978 41.8626 25.2159 41.8258 25.0703C41.8073 24.9248 41.7521 24.7974 41.6968 24.6883C41.6415 24.5791 41.5678 24.4881 41.4757 24.379C41.3467 24.2516 41.1809 24.1425 40.9966 24.0697C40.8124 23.9969 40.6281 23.9605 40.4439 23.9605C40.2412 23.9605 40.0569 23.9969 39.8911 24.0697C39.7068 24.1425 39.5594 24.2334 39.412 24.379C39.3199 24.47 39.2462 24.5791 39.1909 24.6883C39.1356 24.7974 39.0988 24.9248 39.0619 25.0703C39.0251 25.2159 39.0251 25.3978 39.0067 25.5979C38.9882 25.7981 38.9882 26.0528 38.9882 26.3257C38.9882 26.6167 38.9882 26.8533 39.0067 27.0534C39.0067 27.2535 39.0251 27.4354 39.0619 27.581C39.0804 27.7265 39.1356 27.8539 39.1909 27.963C39.2462 28.0722 39.3199 28.1632 39.412 28.2723C39.541 28.3997 39.7068 28.5088 39.8911 28.5816C40.0753 28.6544 40.2596 28.6908 40.4439 28.6908C40.6281 28.6908 40.8308 28.6544 40.9966 28.5816C41.1809 28.5088 41.3283 28.4179 41.4757 28.2723C41.5678 28.1814 41.6415 28.0722 41.6968 27.963C41.7521 27.8539 41.7889 27.7265 41.8258 27.581C41.8442 27.4354 41.8626 27.2535 41.881 27.0534C41.8995 26.8533 41.8995 26.6167 41.8995 26.3257Z" fill="black"/>
<path d="M46.4321 26.5438H44.9397V29.0181H44.5343V23.6511H46.598C46.8191 23.6511 47.0218 23.6875 47.206 23.7421C47.3903 23.8149 47.5561 23.9058 47.7035 24.015C47.8509 24.1423 47.9615 24.2879 48.0352 24.4698C48.1089 24.6518 48.1457 24.8519 48.1457 25.0884C48.1457 25.4886 48.0352 25.8161 47.814 26.0708C47.5929 26.3255 47.2797 26.4711 46.9112 26.5438L48.2194 29.0181H47.7219L46.4321 26.5438ZM47.7403 25.0884C47.7403 24.7245 47.6298 24.4516 47.4087 24.2697C47.1876 24.0878 46.8928 24.015 46.5427 24.015H44.9397V26.18H46.5427C46.8928 26.18 47.1876 26.089 47.4087 25.9253C47.6298 25.7433 47.7403 25.4704 47.7403 25.0884Z" fill="black"/>
<path d="M54.005 26.2528C54.005 26.4347 54.005 26.6348 54.005 26.8349C54.005 27.0351 53.9866 27.2534 53.9498 27.4535C53.9129 27.6536 53.8576 27.8538 53.7839 28.0357C53.7102 28.2176 53.5997 28.3814 53.4707 28.5087C53.139 28.8362 52.6968 28.9999 52.1072 28.9999H50.3015V23.6511H52.1256C52.6968 23.6511 53.1575 23.8149 53.4891 24.1423C53.6181 24.2697 53.7286 24.4334 53.8023 24.5972C53.8761 24.7609 53.9313 24.9428 53.9682 25.1248C54.005 25.3067 54.0235 25.4886 54.0235 25.6888C54.005 25.8889 54.005 26.0708 54.005 26.2528ZM53.5997 26.2528C53.5997 26.1072 53.5997 25.9435 53.5997 25.7797C53.5997 25.616 53.5812 25.4523 53.5628 25.2885C53.5444 25.1248 53.5075 24.961 53.4523 24.8155C53.397 24.6699 53.3233 24.5426 53.2127 24.4334C53.0469 24.2697 52.8811 24.1605 52.6784 24.106C52.4757 24.0514 52.273 24.015 52.0519 24.015H50.7437V28.6543H52.0519C52.273 28.6543 52.4757 28.6179 52.6784 28.5633C52.8811 28.5087 53.0653 28.3996 53.2127 28.2358C53.3233 28.1267 53.397 27.9811 53.4523 27.8174C53.5075 27.6536 53.5444 27.4717 53.5628 27.2898C53.5812 27.1078 53.5997 26.9259 53.5997 26.744C53.5812 26.5802 53.5997 26.3983 53.5997 26.2528Z" fill="black"/>
<path d="M56.2345 23.6511H59.5142V24.015H56.6399V26.1254H59.0904V26.4893H56.6399V28.6543H59.5142V28.9999H56.2345V23.6511Z" fill="black"/>
<path d="M64.268 27.7083H61.7437L61.2647 29.0182H60.8224L62.8124 23.6694H63.1809L65.1709 29.0182H64.7286L64.268 27.7083ZM61.8727 27.3445H64.139L62.9967 24.197L61.8727 27.3445Z" fill="black"/>
<path d="M70.5327 27.2716C70.5327 27.5263 70.4958 27.781 70.3853 27.9811C70.2747 28.1812 70.1642 28.3814 69.9983 28.5451C69.8325 28.7088 69.6298 28.8362 69.4087 28.909C69.1876 28.9999 68.9297 29.0363 68.6533 29.0363C68.3769 29.0363 68.1189 28.9999 67.8978 28.909C67.6767 28.818 67.474 28.6906 67.3082 28.5451C67.1424 28.3814 67.0134 28.1994 66.9213 27.9811C66.8292 27.7628 66.7923 27.5263 66.7923 27.2716V23.6511H67.1977V27.217C67.1977 27.4353 67.2345 27.6354 67.3082 27.8174C67.3819 27.9993 67.474 28.163 67.603 28.2904C67.732 28.4177 67.8794 28.5087 68.0637 28.5815C68.2479 28.6543 68.4322 28.6906 68.6533 28.6906C68.8744 28.6906 69.0771 28.6543 69.2429 28.5815C69.4271 28.5087 69.5745 28.4177 69.7035 28.2904C69.8325 28.163 69.9246 27.9993 69.9983 27.8174C70.072 27.6354 70.0905 27.4353 70.0905 27.217V23.6511H70.4958L70.5327 27.2716Z" fill="black"/>
<path d="M74.0703 26.6166L72.67 28.9999H72.1909L73.8676 26.2528L72.3015 23.6511H72.7805L74.0703 25.9071L75.3785 23.6511H75.8576L74.2914 26.2528L75.9866 28.9999H75.4891L74.0703 26.6166Z" fill="black"/>
</g>
<defs>
<clipPath id="clip0">
<rect width="77" height="29" fill="white"/>
</clipPath>
</defs>
</svg>
